<svg xmlns="http://www.w3.org/2000/svg" width="1200" height="630" viewBox="0 0 1200 630">
  <defs>
    <linearGradient id="bg" x1="0%" y1="0%" x2="100%" y2="100%">
      <stop offset="0%" style="stop-color:#1a1a2e"/>
      <stop offset="100%" style="stop-color:#16213e"/>
    </linearGradient>
    <linearGradient id="gold" x1="0%" y1="0%" x2="100%" y2="0%">
      <stop offset="0%" style="stop-color:#f5a623"/>
      <stop offset="100%" style="stop-color:#f5e623"/>
    </linearGradient>
  </defs>
  <rect width="1200" height="630" fill="url(#bg)"/>
  <g transform="translate(600, 280)">
    <circle cx="0" cy="0" r="120" fill="none" stroke="url(#gold)" stroke-width="3" opacity="0.3"/>
    <circle cx="0" cy="0" r="90" fill="none" stroke="url(#gold)" stroke-width="2" opacity="0.5"/>
    <path d="M-60 20 L-30 -20 L0 20 L30 -20 L60 20" fill="none" stroke="url(#gold)" stroke-width="4" stroke-linecap="round" stroke-linejoin="round"/>
    <circle cx="-60" cy="20" r="8" fill="url(#gold)"/>
    <circle cx="-30" cy="-20" r="8" fill="url(#gold)"/>
    <circle cx="0" cy="20" r="8" fill="url(#gold)"/>
    <circle cx="30" cy="-20" r="8" fill="url(#gold)"/>
    <circle cx="60" cy="20" r="8" fill="url(#gold)"/>
    <rect x="-70" y="30" width="140" height="60" rx="8" fill="url(#gold)" opacity="0.2"/>
  </g>
  <text x="600" y="430" text-anchor="middle" font-family="Arial, sans-serif" font-size="48" font-weight="bold" fill="#f5a623">KK Self Drive</text>
  <text x="600" y="480" text-anchor="middle" font-family="Arial, sans-serif" font-size="24" fill="#ffffff" opacity="0.8">Premium Car Rental in Coimbatore</text>
  <text x="600" y="520" text-anchor="middle" font-family="Arial, sans-serif" font-size="18" fill="#ffffff" opacity="0.6">Hatchbacks • Sedans • SUVs • MPVs • Vans • Buses</text>
  <g transform="translate(100, 100)">
    <rect width="80" height="60" rx="4" fill="#f5a623" opacity="0.2"/>
    <circle cx="20" cy="50" r="10" fill="#f5a623"/>
    <circle cx="60" cy="50" r="10" fill="#f5a623"/>
  </g>
  <g transform="translate(1020, 100)">
    <rect width="80" height="60" rx="4" fill="#f5a623" opacity="0.2"/>
    <circle cx="20" cy="50" r="10" fill="#f5a623"/>
    <circle cx="60" cy="50" r="10" fill="#f5a623"/>
  </g>
</svg>